<svg width="51" height="35" viewBox="0 0 51 35" fill="none" xmlns="http://www.w3.org/2000/svg">
<path d="M14.9304 22.8035L13.9797 22.9054L15.5246 23.6192L14.4551 26.2703L13.9797 27.4939L13.6232 28.5135L13.029 29.8391L12.3159 31.0627L11.8406 31.5725L11.2464 32.1843L10.6522 32.5921L9.62716 32.898L8.75071 33H7.91883L6.84926 32.898L5.77969 32.5921L4.94781 32.1843L4.23476 31.4705C2.80867 29.3292 3.08009 28.8128 3.16515 28.4116C3.40288 27.2899 3.99708 26.8821 4.71013 26.0664L9.46376 21.6819C8.51301 21.8178 6.73042 22.0897 5.66085 22.0897C5.02088 22.0897 4.94781 21.172 5.89853 21.172L10.0579 21.0701L10.5333 20.7642L7.91883 20.0504C7.32462 19.8125 6.04114 19.3774 5.66085 19.5406C5.18549 19.7445 2.4521 19.3367 2.09558 18.8268C1.73906 18.317 2.4521 18.1131 3.0463 18.0111C3.52167 17.9295 4.74969 18.317 5.30428 18.5209L6.61153 18.9033L7.91878 19.2857L10.5333 20.0504L11.9 20.5602L13.2666 21.0701L14.6333 21.5799L16 22.0897L14.9304 22.8035Z" fill="url(#paint0_linear_199_169)"/>
<path d="M21.5854 7.07C21.3296 6.68549 20.8782 5.68466 20.7317 5.31L20.6097 3.77V3L19.9999 4.65L19.2683 6.63L17.6829 9.93L17.1951 9.82L16.8178 9.34906L16.4634 8.83L16.3415 7.73L16.0976 6.96L15.4878 6.74H15.122L14.878 6.96L14.6341 7.29L14.7561 7.73L15.4878 8.72L16.5854 10.26L16.9512 11.03L15.4878 10.04L14.5122 9.16L13.1707 7.95L11.8293 6.63L10.9756 5.2L10.2439 5.09L10 5.53L10.2439 5.86L11.3414 6.74L19.2682 14L19.5122 12.9L19.878 12.79L20.4878 13.12L21.3414 14L25 9.82C23.635 8.70391 21.8194 7.42182 21.5854 7.07Z" fill="url(#paint1_linear_199_169)"/>
<g filter="url(#filter0_d_199_169)">
<path d="M38.2199 22.7429L44 24C42.5294 22.7912 39.5375 20.2222 38.9652 19.6249C38.3928 19.0276 36.8984 17.0296 36.2227 16.1052L34.7919 14.292L33.5995 12.4789L32.1687 9.70578L30.9763 6.71939L30.0224 4.37293L28.83 1.81317L28.2339 1.17323L27.2799 0.533285L26.4453 0.213314L25.6106 0H24.299L23.2258 0.106657L22.0335 0.533285L21.1989 1.17323L20.5026 2.28571L20.2513 3.08571L20.0449 4.11429L20 4.8L20.0449 5.72206C20.1257 6.51429 20.5692 7.09532 20.8796 7.42857C21.1989 7.77143 23.0836 8.94358 24.4182 10.0258C25.17 10.6353 25.4758 10.7704 26.2068 11.5189C26.311 11.6256 28.83 13.9721 29.1877 14.292C29.3564 14.4429 32.0544 17.8088 32.2879 18.1317C33.5995 19.9448 33.6092 20.0078 34.3246 21.7143L38.2199 22.7429Z" fill="url(#paint2_linear_199_169)"/>
</g>
<g filter="url(#filter1_d_199_169)">
<path d="M31.6588 21.0518L34.7943 22.0068L38.4896 22.9618L43.9765 24.1291C44.9514 24.978 46.4771 26.0734 46.664 26.7819C47.112 28.4797 47.112 29.2225 46.664 30.4958C45.9922 31.9814 44.9844 32.7242 43.1927 32.9364C41.6175 33.123 40.8412 32.9364 39.6094 31.8753L34.2343 27.4185L29.3073 24.1291L24.8281 21.4763L17.9974 18.6112L13.5182 16.8073L9.71093 15.4279C8.44184 15.0741 6.88852 14.7132 6.46359 14.579C6.12765 14.4728 5.11989 13.9423 4.7839 13.7301C4.56028 13.5888 4.18668 13.0934 4.11203 12.7751L4 11.7139L4.11203 10.865L4.44796 10.1222L4.89588 9.37946L5.23182 9.06112L5.67973 8.74279L6.23963 8.42445L6.9115 8.10611L7.69536 8L8.59119 8.10611L9.599 8.52498L10.9428 9.47999L11.9506 10.4406L12.9583 11.2895L16.7656 13.8362L21.1328 16.2768L24.2683 17.8684L27.4036 19.354L31.6588 21.0518Z" fill="url(#paint3_linear_199_169)"/>
</g>
<defs>
<filter id="filter0_d_199_169" x="17" y="0" width="32" height="34" filterUnits="userSpaceOnUse" color-interpolation-filters="sRGB">
<feFlood flood-opacity="0" result="BackgroundImageFix"/>
<feColorMatrix in="SourceAlpha" type="matrix" values="0 0 0 0 0 0 0 0 0 0 0 0 0 0 0 0 0 0 127 0" result="hardAlpha"/>
<feOffset dx="1" dy="6"/>
<feGaussianBlur stdDeviation="2"/>
<feComposite in2="hardAlpha" operator="out"/>
<feColorMatrix type="matrix" values="0 0 0 0 0 0 0 0 0 0 0 0 0 0 0 0 0 0 0.25 0"/>
<feBlend mode="normal" in2="BackgroundImageFix" result="effect1_dropShadow_199_169"/>
<feBlend mode="normal" in="SourceGraphic" in2="effect1_dropShadow_199_169" result="shape"/>
</filter>
<filter id="filter1_d_199_169" x="0" y="2" width="51" height="33" filterUnits="userSpaceOnUse" color-interpolation-filters="sRGB">
<feFlood flood-opacity="0" result="BackgroundImageFix"/>
<feColorMatrix in="SourceAlpha" type="matrix" values="0 0 0 0 0 0 0 0 0 0 0 0 0 0 0 0 0 0 127 0" result="hardAlpha"/>
<feOffset dy="-2"/>
<feGaussianBlur stdDeviation="2"/>
<feComposite in2="hardAlpha" operator="out"/>
<feColorMatrix type="matrix" values="0 0 0 0 0 0 0 0 0 0 0 0 0 0 0 0 0 0 0.25 0"/>
<feBlend mode="normal" in2="BackgroundImageFix" result="effect1_dropShadow_199_169"/>
<feBlend mode="normal" in="SourceGraphic" in2="effect1_dropShadow_199_169" result="shape"/>
</filter>
<linearGradient id="paint0_linear_199_169" x1="5.38138" y1="32.2036" x2="16.3221" y2="12.2791" gradientUnits="userSpaceOnUse">
<stop stop-color="white"/>
<stop offset="1" stop-color="#3772FC"/>
</linearGradient>
<linearGradient id="paint1_linear_199_169" x1="14.6265" y1="15.8476" x2="24.6585" y2="-2.71037" gradientUnits="userSpaceOnUse">
<stop offset="0.0364583" stop-color="white"/>
<stop offset="0.769123" stop-color="#3772FC"/>
</linearGradient>
<linearGradient id="paint2_linear_199_169" x1="40.6073" y1="24" x2="26.0834" y2="-1.69401" gradientUnits="userSpaceOnUse">
<stop stop-color="#CCD2FF"/>
<stop offset="1" stop-color="white"/>
</linearGradient>
<linearGradient id="paint3_linear_199_169" x1="5.00585" y1="9.81818" x2="53.9335" y2="39.2021" gradientUnits="userSpaceOnUse">
<stop stop-color="white"/>
<stop offset="0.534475" stop-color="#C8CDF1"/>
<stop offset="0.872164" stop-color="#3872FC"/>
</linearGradient>
</defs>
</svg>
